<svg id="Layer_1" data-name="Layer 1" xmlns="http://www.w3.org/2000/svg" viewBox="0 0 800 469.48"><defs><style>.cls-1{fill:#1577ba;}.cls-2{fill:#0995d3;}.cls-3{fill:#0c4366;}.cls-4,.cls-5,.cls-7,.cls-8{font-size:16.66px;fill:#fff;}.cls-12,.cls-4,.cls-5,.cls-7,.cls-8{font-family:Montserrat-Medium, Montserrat;}.cls-4,.cls-9{letter-spacing:0.1em;}.cls-5{letter-spacing:0.09em;}.cls-6{letter-spacing:0.1em;}.cls-7{letter-spacing:0.11em;}.cls-8{letter-spacing:0.06em;}.cls-10{fill:none;stroke:#6d6e71;stroke-miterlimit:10;stroke-width:2px;}.cls-11{font-size:25px;font-family:Montserrat-Bold, Montserrat;font-weight:700;letter-spacing:0.03em;}.cls-11,.cls-12{fill:#414042;}.cls-12{font-size:21px;letter-spacing:0.02em;}</style></defs><title>illustration2</title><path class="cls-1" d="M254.74,360v46.63c0,8.52,27.3,15.42,61,15.42s61-6.9,61-15.42V360Z"/><ellipse class="cls-1" cx="315.72" cy="359.98" rx="60.98" ry="15.41"/><path class="cls-2" d="M254.74,357v46.64c0,8.51,27.3,15.41,61,15.41s61-6.9,61-15.41V357Z"/><ellipse class="cls-3" cx="315.72" cy="357.02" rx="60.98" ry="15.41"/><path class="cls-1" d="M254.74,302.82v46.63c0,8.51,27.3,15.42,61,15.42s61-6.91,61-15.42V302.82Z"/><ellipse class="cls-1" cx="315.72" cy="302.82" rx="60.98" ry="15.41"/><path class="cls-2" d="M254.74,299.86v46.63c0,8.52,27.3,15.42,61,15.42s61-6.9,61-15.42V299.86Z"/><ellipse class="cls-3" cx="315.72" cy="299.86" rx="60.98" ry="15.41"/><path class="cls-1" d="M254.74,245.54v46.64c0,8.51,27.3,15.41,61,15.41s61-6.9,61-15.41V245.54Z"/><ellipse class="cls-1" cx="315.72" cy="245.54" rx="60.98" ry="15.41"/><path class="cls-2" d="M254.74,242.81v46.63c0,8.51,27.3,15.42,61,15.42s61-6.91,61-15.42V242.81Z"/><ellipse class="cls-3" cx="315.72" cy="242.81" rx="60.98" ry="15.41"/><path class="cls-1" d="M254.74,188.38V235c0,8.52,27.3,15.42,61,15.42s61-6.9,61-15.42V188.38Z"/><ellipse class="cls-1" cx="315.72" cy="188.38" rx="60.98" ry="15.41"/><path class="cls-2" d="M254.74,185.64v46.64c0,8.51,27.3,15.41,61,15.41s61-6.9,61-15.41V185.64Z"/><ellipse class="cls-3" cx="315.72" cy="185.64" rx="60.98" ry="15.41"/><path class="cls-1" d="M254.74,131.08v46.64c0,8.51,27.3,15.41,61,15.41s61-6.9,61-15.41V131.08Z"/><ellipse class="cls-1" cx="315.72" cy="131.08" rx="60.98" ry="15.41"/><path class="cls-2" d="M254.74,128.61v46.64c0,8.51,27.3,15.41,61,15.41s61-6.9,61-15.41V128.61Z"/><ellipse class="cls-3" cx="315.72" cy="128.61" rx="60.98" ry="15.41"/><text class="cls-4" transform="translate(306.23 401.13)">E1</text><text class="cls-5" transform="translate(305.01 343.96)">D<tspan class="cls-6" x="15.26" y="0">1</tspan></text><text class="cls-7" transform="translate(305.7 288.69)">C<tspan class="cls-6" x="13.88" y="0">1</tspan></text><text class="cls-4" transform="translate(305.5 230.39)">B1</text><text class="cls-8" transform="translate(306.07 173.39)">A<tspan class="cls-9" x="13.16" y="0">1</tspan></text><line class="cls-10" x1="315.72" y1="128.61" x2="315.72" y2="86.44"/><line class="cls-10" x1="315.73" y1="86.44" x2="484.28" y2="86.44"/><path class="cls-1" d="M423.3,360v46.63c0,8.52,27.3,15.42,61,15.42s61-6.9,61-15.42V360Z"/><ellipse class="cls-1" cx="484.28" cy="359.98" rx="60.98" ry="15.41"/><path class="cls-2" d="M423.3,357v46.64c0,8.51,27.3,15.41,61,15.41s61-6.9,61-15.41V357Z"/><ellipse class="cls-3" cx="484.28" cy="357.02" rx="60.98" ry="15.41"/><path class="cls-1" d="M423.3,302.82v46.63c0,8.51,27.3,15.42,61,15.42s61-6.91,61-15.42V302.82Z"/><ellipse class="cls-1" cx="484.28" cy="302.82" rx="60.98" ry="15.41"/><path class="cls-2" d="M423.3,299.86v46.63c0,8.52,27.3,15.42,61,15.42s61-6.9,61-15.42V299.86Z"/><ellipse class="cls-3" cx="484.28" cy="299.86" rx="60.98" ry="15.41"/><path class="cls-1" d="M423.3,245.54v46.64c0,8.51,27.3,15.41,61,15.41s61-6.9,61-15.41V245.54Z"/><ellipse class="cls-1" cx="484.28" cy="245.54" rx="60.98" ry="15.41"/><path class="cls-2" d="M423.3,242.81v46.63c0,8.51,27.3,15.42,61,15.42s61-6.91,61-15.42V242.81Z"/><ellipse class="cls-3" cx="484.28" cy="242.81" rx="60.98" ry="15.41"/><path class="cls-1" d="M423.3,188.38V235c0,8.52,27.3,15.42,61,15.42s61-6.9,61-15.42V188.38Z"/><ellipse class="cls-1" cx="484.28" cy="188.38" rx="60.98" ry="15.41"/><path class="cls-2" d="M423.3,185.64v46.64c0,8.51,27.3,15.41,61,15.41s61-6.9,61-15.41V185.64Z"/><ellipse class="cls-3" cx="484.28" cy="185.64" rx="60.98" ry="15.41"/><path class="cls-1" d="M423.3,131.08v46.64c0,8.51,27.3,15.41,61,15.41s61-6.9,61-15.41V131.08Z"/><ellipse class="cls-1" cx="484.28" cy="131.08" rx="60.98" ry="15.41"/><path class="cls-2" d="M423.3,128.61v46.64c0,8.51,27.3,15.41,61,15.41s61-6.9,61-15.41V128.61Z"/><ellipse class="cls-3" cx="484.28" cy="128.61" rx="60.98" ry="15.41"/><text class="cls-4" transform="translate(474.78 401.13)">E1</text><text class="cls-5" transform="translate(473.57 343.96)">D<tspan class="cls-6" x="15.26" y="0">1</tspan></text><text class="cls-7" transform="translate(474.26 288.69)">C<tspan class="cls-6" x="13.88" y="0">1</tspan></text><text class="cls-4" transform="translate(474.06 230.39)">B1</text><text class="cls-8" transform="translate(474.62 173.39)">A<tspan class="cls-9" x="13.16" y="0">1</tspan></text><line class="cls-10" x1="484.28" y1="128.61" x2="484.28" y2="86.44"/><line class="cls-10" x1="400" y1="86.44" x2="400" y2="44.27"/><text class="cls-11" transform="translate(356.82 35.31)">RAID 1</text><text class="cls-12" transform="translate(284.38 453.79)">Disk 1</text><text class="cls-12" transform="translate(450.79 453.79)">Disk 2</text></svg>